<svg id="svg" version="1.1" xmlns="http://www.w3.org/2000/svg" xmlns:xlink="http://www.w3.org/1999/xlink" width="400" height="160.1410934744268" viewBox="0, 0, 400,160.1410934744268"><g id="svgg"><path id="path0" d="M49.989 32.303 C 49.845 32.366,49.508 32.592,49.239 32.807 L 48.750 33.197 48.704 42.204 C 48.653 52.207,48.609 51.784,49.758 52.264 C 50.681 52.650,66.760 52.609,67.578 52.219 C 68.835 51.619,68.833 51.636,68.833 42.322 C 68.833 33.138,68.855 33.328,67.684 32.545 L 67.117 32.167 58.684 32.178 C 54.045 32.185,50.133 32.241,49.989 32.303 M73.007 32.808 L 72.333 33.448 72.333 42.232 C 72.333 52.008,72.308 51.776,73.441 52.249 C 74.328 52.620,90.330 52.624,91.216 52.254 C 92.352 51.779,92.333 51.943,92.333 42.383 C 92.333 32.929,92.356 33.147,91.284 32.493 C 90.773 32.182,90.386 32.168,82.215 32.167 L 73.681 32.167 73.007 32.808 M25.619 56.488 L 24.917 57.143 24.872 65.780 C 24.813 77.386,23.597 76.065,34.409 76.134 C 43.437 76.192,43.617 76.180,44.424 75.471 L 45.000 74.965 44.997 66.024 C 44.996 61.107,44.940 57.007,44.872 56.914 C 44.805 56.821,44.500 56.540,44.196 56.289 L 43.641 55.833 34.981 55.833 L 26.320 55.833 25.619 56.488 M49.456 56.292 C 48.633 56.923,48.671 56.443,48.670 66.083 C 48.668 76.016,48.611 75.612,50.057 75.976 C 51.065 76.230,66.220 76.242,67.222 75.990 C 67.736 75.860,68.035 75.652,68.337 75.210 L 68.750 74.608 68.750 66.000 L 68.750 57.392 68.336 56.789 C 67.669 55.814,67.862 55.833,58.602 55.833 L 50.054 55.833 49.456 56.292 M25.780 80.125 C 24.831 80.841,24.819 80.967,24.870 90.061 L 24.917 98.303 25.435 98.943 L 25.953 99.583 34.926 99.626 L 43.898 99.670 44.449 99.135 L 45.000 98.601 45.000 89.728 L 45.000 80.854 44.375 80.262 L 43.750 79.670 35.069 79.668 L 26.387 79.667 25.780 80.125 M49.285 80.250 L 48.667 80.833 48.667 89.661 L 48.667 98.488 49.185 99.079 L 49.704 99.670 58.709 99.626 L 67.713 99.583 68.232 98.943 L 68.750 98.303 68.802 90.110 C 68.858 81.136,68.846 81.005,67.909 80.182 L 67.322 79.667 58.612 79.667 L 49.903 79.667 49.285 80.250 M73.294 79.928 C 72.324 80.454,72.333 80.362,72.333 89.723 C 72.333 98.791,72.337 98.838,73.106 99.421 C 73.364 99.616,74.919 99.657,82.346 99.661 L 91.275 99.667 91.617 99.292 C 92.334 98.504,92.333 98.510,92.333 89.744 C 92.333 80.489,92.338 80.537,91.347 79.951 C 90.664 79.548,74.034 79.526,73.294 79.928 M26.167 103.456 C 25.828 103.586,25.178 104.329,24.988 104.803 C 24.670 105.596,24.795 121.508,25.125 122.155 C 25.796 123.470,25.379 123.410,34.387 123.468 C 43.565 123.526,43.682 123.518,44.448 122.752 L 45.000 122.200 45.000 113.333 L 45.000 104.467 44.433 103.900 L 43.867 103.333 35.142 103.346 C 30.343 103.354,26.304 103.403,26.167 103.456 M49.256 103.922 L 48.667 104.511 48.667 113.326 L 48.667 122.141 49.094 122.649 C 49.781 123.465,50.149 123.498,58.668 123.499 C 69.969 123.500,68.840 124.640,68.817 113.251 C 68.799 104.514,68.821 104.788,68.038 103.930 L 67.492 103.333 58.668 103.333 L 49.844 103.333 49.256 103.922 " stroke="none" fill="#349b34" fill-rule="evenodd"></path><path id="path1" d="M32.917 31.441 C 25.104 33.450,21.298 41.805,25.383 47.979 C 25.631 48.353,25.833 48.711,25.833 48.774 C 25.833 49.033,28.007 51.162,28.274 51.165 C 28.379 51.166,28.501 51.263,28.546 51.381 C 28.859 52.194,32.574 53.333,34.917 53.333 C 37.259 53.333,40.975 52.194,41.287 51.381 C 41.332 51.263,41.446 51.167,41.539 51.167 C 41.785 51.167,43.061 49.991,43.203 49.634 C 43.269 49.469,43.395 49.333,43.483 49.333 C 43.707 49.333,44.851 47.418,45.224 46.417 C 46.841 42.083,45.896 37.656,42.678 34.493 C 41.584 33.418,40.936 32.965,39.345 32.168 C 38.147 31.566,34.175 31.118,32.917 31.441 " stroke="none" fill="#cc0c0c" fill-rule="evenodd"></path><path id="path2" d="M142.333 55.433 C 140.311 55.759,138.833 56.220,138.833 56.525 C 138.833 56.603,138.738 56.667,138.622 56.667 C 137.080 56.667,135.950 61.365,136.977 63.510 C 137.557 64.723,139.631 66.667,140.345 66.667 C 140.434 66.667,140.786 66.839,141.128 67.049 C 141.470 67.259,142.261 67.679,142.885 67.981 C 145.232 69.118,145.666 70.987,143.781 71.843 C 142.526 72.412,139.639 71.971,137.344 70.858 C 136.129 70.270,136.151 70.235,136.203 72.624 L 136.250 74.747 137.667 75.235 C 141.257 76.470,146.303 75.758,147.990 73.778 C 148.133 73.609,148.382 73.316,148.542 73.126 C 149.573 71.908,149.494 67.973,148.413 66.733 C 147.746 65.967,146.633 65.000,146.419 65.000 C 146.353 65.000,145.965 64.775,145.557 64.500 C 145.150 64.225,144.727 64.000,144.617 63.999 C 144.507 63.999,144.117 63.814,143.750 63.588 C 143.383 63.362,142.986 63.175,142.868 63.172 C 142.619 63.166,142.368 62.981,141.478 62.145 C 140.304 61.042,140.890 59.495,142.576 59.242 C 143.712 59.072,146.646 59.671,147.242 60.194 C 147.505 60.426,148.000 60.350,148.000 60.079 C 148.000 59.938,148.219 59.390,148.487 58.860 C 149.376 57.097,149.349 56.816,148.240 56.369 C 146.664 55.733,143.542 55.239,142.333 55.433 M237.005 55.604 C 232.426 56.453,229.837 60.057,229.836 65.583 C 229.835 69.068,231.873 74.000,233.314 74.000 C 233.416 74.000,233.500 74.073,233.500 74.162 C 233.500 74.835,236.458 75.702,239.057 75.792 C 244.164 75.969,247.298 73.827,248.509 69.333 C 249.289 66.438,248.886 61.440,247.737 59.747 C 247.515 59.420,247.333 59.082,247.333 58.997 C 247.333 58.682,245.285 56.843,244.448 56.405 C 242.698 55.490,239.484 55.144,237.005 55.604 M105.833 65.667 L 105.833 75.667 108.083 75.667 L 110.333 75.667 110.333 65.667 L 110.333 55.667 108.083 55.667 L 105.833 55.667 105.833 65.667 M115.000 65.667 L 115.000 75.667 117.014 75.667 L 119.028 75.667 118.972 68.434 C 118.919 61.510,118.929 61.221,119.207 61.643 C 119.367 61.885,119.498 62.151,119.499 62.234 C 119.500 62.317,119.675 62.617,119.888 62.901 C 120.101 63.185,120.392 63.642,120.533 63.917 C 121.048 64.917,121.703 66.084,121.981 66.495 C 122.138 66.727,122.358 67.104,122.471 67.333 C 122.584 67.563,122.946 68.200,123.275 68.750 C 123.604 69.300,124.040 70.050,124.242 70.417 C 124.934 71.669,125.369 72.417,125.502 72.583 C 125.651 72.771,126.383 74.096,126.860 75.042 L 127.174 75.667 130.004 75.667 L 132.833 75.667 132.833 65.662 L 132.833 55.656 130.792 55.703 L 128.750 55.750 128.755 62.768 C 128.759 68.178,128.716 69.705,128.567 69.434 C 128.461 69.241,128.171 68.710,127.922 68.255 C 127.673 67.799,127.342 67.237,127.185 67.005 C 127.029 66.773,126.808 66.396,126.695 66.167 C 126.582 65.938,126.233 65.337,125.921 64.833 C 125.608 64.329,125.148 63.523,124.899 63.042 C 124.650 62.560,124.383 62.167,124.306 62.167 C 124.229 62.167,124.167 62.058,124.167 61.925 C 124.167 61.792,123.942 61.350,123.667 60.943 C 123.392 60.535,123.167 60.124,123.167 60.029 C 123.167 59.935,123.062 59.753,122.935 59.625 C 122.807 59.497,122.502 59.023,122.258 58.571 C 120.530 55.380,120.976 55.667,117.724 55.667 L 115.000 55.667 115.000 65.667 M150.870 57.542 L 150.917 59.417 153.625 59.462 L 156.333 59.508 156.333 67.587 L 156.333 75.667 158.500 75.667 L 160.667 75.667 160.667 67.583 L 160.667 59.500 163.333 59.500 L 166.000 59.500 166.000 57.583 L 166.000 55.667 158.411 55.667 L 150.822 55.667 150.870 57.542 M168.667 65.667 L 168.667 75.667 170.917 75.667 L 173.167 75.667 173.167 65.667 L 173.167 55.667 170.917 55.667 L 168.667 55.667 168.667 65.667 M175.870 57.542 L 175.917 59.417 178.542 59.463 L 181.167 59.508 181.167 67.588 L 181.167 75.667 183.417 75.667 L 185.667 75.667 185.667 67.587 L 185.667 59.508 188.375 59.462 L 191.083 59.417 191.130 57.542 L 191.178 55.667 183.500 55.667 L 175.822 55.667 175.870 57.542 M193.841 62.208 C 193.850 70.247,193.916 70.897,194.901 72.626 C 197.332 76.893,206.307 76.989,209.047 72.777 C 210.228 70.961,210.237 70.893,210.296 62.875 L 210.350 55.667 208.097 55.667 L 205.844 55.667 205.797 62.542 L 205.750 69.417 205.304 70.333 C 204.302 72.395,200.869 72.744,199.199 70.954 C 198.423 70.122,198.337 69.255,198.335 62.208 L 198.333 55.667 196.083 55.667 L 193.833 55.667 193.841 62.208 M212.833 57.583 L 212.833 59.500 215.500 59.500 L 218.167 59.500 218.167 67.583 L 218.167 75.667 220.333 75.667 L 222.500 75.667 222.500 67.587 L 222.500 59.508 225.208 59.462 L 227.917 59.417 227.964 57.542 L 228.011 55.667 220.422 55.667 L 212.833 55.667 212.833 57.583 M259.833 65.667 L 259.833 75.667 262.000 75.667 L 264.167 75.667 264.167 71.750 L 264.167 67.833 267.583 67.833 L 271.000 67.833 271.000 66.000 L 271.000 64.167 267.583 64.167 L 264.167 64.167 264.167 61.833 L 264.167 59.500 267.750 59.500 L 271.333 59.500 271.333 57.583 L 271.333 55.667 265.583 55.667 L 259.833 55.667 259.833 65.667 M275.000 65.667 L 275.000 75.667 280.833 75.667 L 286.667 75.667 286.667 73.750 L 286.667 71.833 283.083 71.833 L 279.500 71.833 279.500 69.417 L 279.500 67.000 282.833 67.000 L 286.167 67.000 286.167 65.167 L 286.167 63.333 282.833 63.333 L 279.500 63.333 279.500 61.420 L 279.500 59.507 283.042 59.462 L 286.583 59.417 286.630 57.542 L 286.678 55.667 280.839 55.667 L 275.000 55.667 275.000 65.667 M290.577 55.875 C 290.533 55.990,290.516 60.471,290.540 65.833 L 290.583 75.583 294.417 75.574 C 298.924 75.563,302.055 75.022,302.586 74.162 C 302.641 74.073,302.819 74.000,302.981 74.000 C 303.298 74.000,304.900 72.458,305.582 71.498 C 306.817 69.757,307.500 65.819,307.006 63.291 C 306.731 61.880,305.761 59.500,305.462 59.500 C 305.391 59.500,305.332 59.406,305.331 59.292 C 305.328 59.084,303.955 57.667,303.757 57.667 C 303.700 57.667,303.505 57.529,303.324 57.360 C 302.506 56.598,300.650 55.987,298.667 55.826 C 295.835 55.596,290.671 55.627,290.577 55.875 M310.833 65.667 L 310.833 75.667 316.667 75.667 L 322.500 75.667 322.500 73.750 L 322.500 71.833 318.917 71.833 L 315.333 71.833 315.333 69.417 L 315.333 67.000 318.667 67.000 L 322.000 67.000 322.000 65.167 L 322.000 63.333 318.667 63.333 L 315.333 63.333 315.333 61.420 L 315.333 59.507 318.875 59.462 L 322.417 59.417 322.464 57.542 L 322.511 55.667 316.672 55.667 L 310.833 55.667 310.833 65.667 M326.333 65.667 L 326.333 75.667 328.583 75.667 L 330.833 75.667 330.833 71.833 L 330.833 68.000 331.833 68.000 C 332.431 68.000,332.833 68.072,332.833 68.178 C 332.833 68.276,333.031 68.615,333.273 68.933 C 333.515 69.250,333.834 69.729,333.982 69.997 C 334.780 71.446,335.233 72.167,335.349 72.167 C 335.420 72.167,335.531 72.334,335.596 72.538 C 335.660 72.743,335.840 73.099,335.995 73.330 C 336.150 73.561,336.561 74.181,336.908 74.708 L 337.541 75.667 342.265 75.667 L 346.990 75.667 347.342 74.458 C 347.536 73.794,347.886 72.706,348.120 72.042 L 348.545 70.833 351.906 70.833 L 355.266 70.833 355.471 71.400 C 355.584 71.712,355.781 72.369,355.909 72.861 C 356.037 73.353,356.303 74.185,356.500 74.711 L 356.857 75.667 359.186 75.667 L 361.515 75.667 361.401 75.042 C 361.338 74.698,361.109 74.014,360.893 73.521 C 360.677 73.028,360.500 72.518,360.500 72.387 C 360.500 72.256,360.275 71.620,360.000 70.973 C 359.725 70.327,359.500 69.689,359.500 69.555 C 359.500 69.421,359.313 68.902,359.083 68.401 C 358.854 67.900,358.667 67.393,358.667 67.274 C 358.667 67.155,358.469 66.576,358.227 65.987 C 357.985 65.398,357.729 64.692,357.657 64.417 C 357.586 64.142,357.215 63.054,356.834 62.000 C 355.596 58.577,355.312 57.767,354.978 56.704 L 354.649 55.659 351.875 55.704 L 349.101 55.750 348.455 57.583 C 348.099 58.592,347.748 59.642,347.675 59.917 C 347.602 60.192,347.373 60.829,347.167 61.333 C 346.960 61.837,346.732 62.475,346.660 62.750 C 346.587 63.025,346.179 64.188,345.753 65.333 C 345.327 66.479,344.914 67.642,344.835 67.917 C 344.756 68.192,344.391 69.242,344.026 70.250 C 343.660 71.258,343.283 72.308,343.188 72.583 C 342.460 74.693,342.287 75.167,342.246 75.167 C 342.221 75.167,342.023 74.889,341.808 74.550 C 341.593 74.210,341.304 73.774,341.167 73.580 C 340.668 72.876,339.579 71.285,339.416 71.021 C 338.781 69.997,337.210 67.694,336.964 67.427 C 336.565 66.993,336.587 66.894,337.125 66.703 C 339.671 65.800,341.005 61.743,339.673 58.951 C 338.405 56.294,336.521 55.700,329.292 55.676 L 326.333 55.667 326.333 65.667 M363.667 65.669 L 363.667 75.671 369.875 75.627 L 376.083 75.583 376.083 73.750 L 376.083 71.917 372.125 71.872 L 368.167 71.827 368.167 63.747 L 368.167 55.667 365.917 55.667 L 363.667 55.667 363.667 65.669 M240.968 59.363 C 241.398 59.472,241.847 59.657,241.967 59.776 C 242.086 59.895,242.311 60.088,242.467 60.205 C 244.643 61.832,244.906 67.961,242.912 70.575 C 241.410 72.544,237.728 72.577,236.024 70.636 C 234.591 69.004,233.992 62.809,235.195 62.066 C 235.271 62.019,235.333 61.830,235.333 61.646 C 235.333 60.100,238.614 58.771,240.968 59.363 M299.500 59.799 C 302.204 61.099,303.322 65.173,301.925 68.644 C 301.427 69.883,300.125 71.330,299.503 71.336 C 299.364 71.337,298.950 71.446,298.583 71.579 C 298.203 71.715,297.290 71.822,296.458 71.826 L 295.000 71.833 295.000 65.653 L 295.000 59.473 297.042 59.536 C 298.165 59.570,299.271 59.689,299.500 59.799 M334.602 59.931 C 335.536 60.552,335.667 60.787,335.667 61.843 C 335.667 63.559,334.523 64.308,331.875 64.326 L 330.833 64.333 330.833 61.917 L 330.833 59.500 332.393 59.500 C 333.793 59.500,334.020 59.544,334.602 59.931 M352.669 62.000 C 352.927 62.779,353.192 63.676,353.257 63.993 C 353.322 64.311,353.504 64.873,353.661 65.243 C 353.819 65.614,353.992 66.198,354.047 66.542 L 354.146 67.167 351.805 67.167 C 349.641 67.167,349.473 67.145,349.586 66.875 C 349.803 66.353,351.021 62.481,351.616 60.417 L 351.905 59.418 352.052 60.001 C 352.133 60.321,352.411 61.221,352.669 62.000 M142.723 83.958 C 142.471 84.394,142.017 85.105,141.716 85.540 C 140.605 87.138,142.081 87.550,143.516 86.042 C 145.963 83.469,146.050 83.167,144.340 83.167 L 143.181 83.167 142.723 83.958 M155.833 84.049 C 155.191 84.374,155.212 85.956,155.864 86.321 C 156.805 86.850,157.822 85.965,157.605 84.808 C 157.445 83.954,156.674 83.624,155.833 84.049 M106.000 91.997 L 106.000 99.833 110.500 99.833 L 115.000 99.833 115.000 98.917 L 115.000 98.000 111.583 98.000 L 108.167 98.000 108.167 95.333 L 108.167 92.667 111.333 92.667 L 114.500 92.667 114.500 91.750 L 114.500 90.833 111.333 90.833 L 108.167 90.833 108.167 88.500 L 108.167 86.167 111.592 86.167 L 115.017 86.167 114.967 85.208 L 114.917 84.250 110.458 84.206 L 106.000 84.161 106.000 91.997 M188.685 84.615 C 187.519 85.222,186.678 86.296,186.635 87.232 C 186.578 88.495,186.700 89.747,186.923 90.167 C 187.291 90.863,188.985 92.333,189.418 92.333 C 189.895 92.333,193.009 93.825,193.510 94.293 C 194.736 95.439,194.125 97.454,192.397 97.964 C 191.174 98.325,187.860 98.049,186.835 97.501 C 186.348 97.240,186.333 97.267,186.333 98.413 C 186.333 99.457,186.349 99.497,186.792 99.590 C 187.044 99.643,187.564 99.757,187.949 99.843 C 191.635 100.671,195.379 99.411,196.018 97.127 C 196.530 95.299,195.682 92.333,194.647 92.333 C 194.574 92.333,194.239 92.146,193.901 91.917 C 193.563 91.688,193.176 91.500,193.040 91.500 C 191.819 91.500,188.936 89.631,188.641 88.648 C 187.913 86.219,191.311 85.201,195.016 86.739 C 195.283 86.850,195.833 85.776,195.833 85.145 C 195.833 84.179,190.308 83.769,188.685 84.615 M161.702 85.792 C 161.624 85.952,161.423 86.496,161.256 87.000 C 160.984 87.823,160.870 87.958,160.143 88.319 C 158.925 88.925,158.938 89.667,160.167 89.667 L 161.000 89.667 161.000 93.558 C 161.000 99.223,161.421 99.990,164.531 99.997 C 166.209 100.001,166.500 99.842,166.500 98.916 L 166.500 98.157 165.444 98.266 C 163.227 98.493,163.001 98.034,163.001 93.292 L 163.000 89.667 164.750 89.667 L 166.500 89.667 166.500 88.917 L 166.500 88.167 164.750 88.167 L 163.000 88.167 163.000 86.833 L 163.000 85.500 162.423 85.500 C 162.038 85.500,161.797 85.597,161.702 85.792 M224.615 86.292 C 224.459 86.727,224.332 87.240,224.333 87.431 C 224.333 87.688,224.093 87.897,223.417 88.228 C 222.096 88.875,222.041 89.667,223.317 89.667 L 224.134 89.667 224.192 93.958 L 224.250 98.250 224.735 98.884 C 225.957 100.482,229.667 100.514,229.667 98.927 L 229.667 98.179 228.605 98.278 C 226.363 98.488,226.167 98.088,226.167 93.325 L 226.167 89.667 227.833 89.667 L 229.500 89.667 229.500 88.917 L 229.500 88.167 227.833 88.167 L 226.167 88.167 226.167 86.833 L 226.167 85.500 225.533 85.500 C 224.928 85.500,224.886 85.536,224.615 86.292 M119.886 87.983 C 116.721 88.799,115.961 92.062,118.567 93.642 C 119.043 93.930,119.490 94.167,119.560 94.167 C 119.631 94.167,120.077 94.344,120.552 94.560 C 121.028 94.777,121.603 95.012,121.830 95.084 C 122.979 95.444,123.689 96.476,123.350 97.292 C 122.868 98.453,119.625 98.668,117.794 97.659 C 117.126 97.292,116.980 97.445,117.033 98.458 C 117.096 99.652,117.489 99.841,120.154 99.962 C 123.751 100.124,125.504 99.022,125.498 96.604 C 125.495 95.250,123.827 93.333,122.653 93.333 C 122.573 93.333,122.017 93.108,121.417 92.833 C 120.816 92.558,120.248 92.333,120.153 92.333 C 119.879 92.333,119.000 91.288,119.000 90.963 C 119.000 89.788,121.246 89.297,123.361 90.009 C 123.920 90.198,124.476 90.314,124.597 90.268 C 124.866 90.164,125.243 88.840,125.054 88.662 C 124.467 88.109,121.108 87.668,119.886 87.983 M132.333 87.937 C 131.586 88.228,130.696 88.748,130.292 89.129 L 129.833 89.562 129.833 89.128 C 129.833 88.304,129.688 88.167,128.816 88.167 L 128.000 88.167 128.000 96.667 L 128.000 105.167 129.000 105.167 L 130.000 105.167 130.000 101.884 L 130.000 98.601 130.542 99.106 C 132.058 100.520,135.344 100.328,136.927 98.733 C 138.655 96.991,139.011 91.493,137.500 89.871 C 137.341 89.701,137.132 89.413,137.035 89.231 C 136.574 88.371,133.436 87.507,132.333 87.937 M150.417 88.268 C 149.513 88.731,149.000 89.130,149.000 89.371 C 149.000 89.455,148.887 89.636,148.750 89.774 C 148.528 89.996,148.500 89.962,148.498 89.470 C 148.493 88.318,148.375 88.167,147.481 88.167 L 146.667 88.167 146.667 94.000 L 146.667 99.833 147.667 99.833 L 148.667 99.833 148.667 96.675 C 148.667 91.279,149.458 89.787,152.333 89.760 L 153.417 89.750 153.469 88.933 C 153.548 87.686,152.149 87.382,150.417 88.268 M171.583 88.057 C 169.222 88.838,168.102 90.444,167.883 93.361 C 167.526 98.131,170.749 100.967,175.189 99.788 C 175.843 99.615,176.191 99.415,177.145 98.667 C 178.745 97.411,179.168 92.257,177.831 90.310 C 176.429 88.269,173.803 87.322,171.583 88.057 M202.083 87.945 C 201.481 88.076,199.587 88.728,199.434 88.856 C 199.347 88.929,199.374 89.300,199.497 89.741 C 199.742 90.613,199.898 90.655,201.000 90.146 C 203.452 89.012,205.500 89.889,205.500 92.072 L 205.500 92.637 204.042 92.737 C 199.537 93.046,197.858 94.206,198.028 96.889 C 198.164 99.024,199.335 99.973,201.854 99.991 C 203.378 100.002,204.407 99.676,205.040 98.983 C 205.518 98.460,205.833 98.465,205.833 98.996 C 205.833 99.669,206.016 99.833,206.768 99.833 L 207.500 99.833 207.500 95.224 C 207.500 90.289,207.284 89.050,206.366 88.712 C 206.211 88.655,206.043 88.549,205.995 88.478 C 205.720 88.076,203.112 87.720,202.083 87.945 M215.167 87.937 C 214.433 88.222,213.533 88.744,213.148 89.108 L 212.712 89.519 212.604 88.843 L 212.496 88.167 211.665 88.167 L 210.833 88.167 210.833 94.000 L 210.833 99.833 211.833 99.833 L 212.833 99.833 212.834 96.375 C 212.835 91.204,213.343 89.960,215.558 89.711 C 218.323 89.399,218.708 90.111,218.797 95.708 L 218.863 99.833 219.772 99.833 L 220.681 99.833 220.632 95.014 L 220.583 90.195 220.083 89.491 C 219.213 88.266,216.513 87.413,215.167 87.937 M234.917 87.980 C 233.360 88.391,232.294 89.293,231.546 90.833 C 230.970 92.018,230.863 95.656,231.375 96.651 C 231.535 96.963,231.667 97.317,231.667 97.439 C 231.667 97.953,233.459 99.464,234.389 99.735 C 238.757 101.005,241.750 98.673,241.750 94.000 C 241.750 89.594,238.765 86.965,234.917 87.980 M141.167 94.000 L 141.167 99.833 142.250 99.833 L 143.333 99.833 143.333 94.000 L 143.333 88.167 142.250 88.167 L 141.167 88.167 141.167 94.000 M155.333 94.000 L 155.333 99.833 156.417 99.833 L 157.500 99.833 157.500 94.000 L 157.500 88.167 156.417 88.167 L 155.333 88.167 155.333 94.000 M134.620 89.995 C 137.038 91.470,136.901 97.029,134.421 98.055 C 131.350 99.325,129.134 95.810,130.382 91.649 C 130.896 89.934,133.106 89.072,134.620 89.995 M175.035 90.175 C 176.612 91.217,177.174 95.917,175.852 97.000 C 175.796 97.046,175.672 97.225,175.577 97.397 C 174.973 98.497,171.000 98.492,171.000 97.391 C 171.000 97.262,170.891 97.114,170.758 97.063 C 169.900 96.734,169.778 92.296,170.596 91.133 C 171.646 89.639,173.588 89.220,175.035 90.175 M237.617 89.874 C 240.427 91.126,240.518 96.741,237.750 98.018 C 235.925 98.861,233.813 97.847,233.369 95.917 C 233.006 94.337,232.974 93.884,233.153 92.913 C 233.638 90.289,235.580 88.967,237.617 89.874 M205.500 94.970 C 205.500 97.822,201.418 99.732,200.348 97.381 C 199.494 95.509,201.175 94.278,204.708 94.187 L 205.500 94.167 205.500 94.970 M216.833 115.500 L 216.833 123.500 217.833 123.500 L 218.833 123.500 218.833 115.500 L 218.833 107.500 217.833 107.500 L 216.833 107.500 216.833 115.500 M241.200 108.200 C 241.090 108.310,241.000 108.782,241.000 109.250 C 241.000 110.515,242.237 111.086,242.907 110.130 C 243.754 108.920,242.217 107.183,241.200 108.200 M110.917 108.311 C 107.133 109.235,105.575 111.271,105.381 115.549 C 105.084 122.087,108.695 124.832,115.708 123.400 C 116.150 123.310,116.470 121.492,116.042 121.503 C 115.973 121.505,115.167 121.615,114.250 121.747 C 111.168 122.191,109.429 121.569,108.268 119.608 C 107.345 118.047,107.179 114.304,107.974 113.000 C 108.170 112.679,108.381 112.304,108.443 112.167 C 109.226 110.430,112.052 109.610,114.583 110.385 C 116.110 110.853,116.059 110.864,116.514 109.973 C 116.894 109.227,116.841 108.833,116.359 108.833 C 116.184 108.833,115.750 108.712,115.395 108.563 C 114.688 108.268,111.767 108.103,110.917 108.311 M195.917 108.341 C 194.527 108.676,193.363 109.302,192.500 110.179 C 191.725 110.966,191.607 111.159,191.019 112.611 C 190.189 114.658,190.299 119.380,191.190 119.931 C 191.269 119.980,191.333 120.136,191.333 120.279 C 191.333 120.766,192.557 122.208,193.463 122.787 C 195.034 123.792,197.845 124.025,200.875 123.401 C 201.271 123.320,201.657 121.500,201.279 121.500 C 201.249 121.500,200.429 121.612,199.456 121.748 C 197.273 122.055,195.700 121.838,194.837 121.112 C 194.546 120.867,194.239 120.667,194.154 120.667 C 194.069 120.667,194.000 120.578,194.000 120.469 C 194.000 120.360,193.841 120.102,193.647 119.896 C 192.772 118.964,192.402 115.728,192.946 113.761 C 193.797 110.683,196.825 109.300,200.144 110.475 C 200.728 110.681,201.223 110.827,201.243 110.800 C 201.541 110.407,202.024 109.321,201.971 109.164 C 201.759 108.526,197.532 107.951,195.917 108.341 M234.286 110.375 C 234.144 110.765,233.977 111.257,233.915 111.470 C 233.794 111.888,232.930 112.498,232.458 112.499 C 232.236 112.500,232.167 112.639,232.167 113.083 C 232.167 113.662,232.173 113.667,232.901 113.667 L 233.635 113.667 233.703 117.542 C 233.766 121.173,233.888 122.183,234.302 122.497 C 234.365 122.544,234.499 122.733,234.600 122.917 C 234.954 123.562,236.891 123.920,238.375 123.614 C 238.996 123.486,239.000 123.480,239.000 122.656 C 239.000 121.834,238.996 121.828,238.542 121.947 C 236.156 122.571,235.669 121.712,235.668 116.875 L 235.667 113.667 237.333 113.667 L 239.000 113.667 239.000 112.917 L 239.000 112.167 237.333 112.167 L 235.667 112.167 235.667 110.917 L 235.667 109.667 235.106 109.667 C 234.598 109.667,234.521 109.733,234.286 110.375 M134.833 111.990 C 134.019 112.155,132.905 112.758,132.594 113.202 C 132.340 113.565,132.333 113.557,132.333 112.870 L 132.333 112.167 131.417 112.167 L 130.500 112.167 130.500 117.833 L 130.500 123.500 131.489 123.500 L 132.477 123.500 132.530 119.708 C 132.600 114.753,133.112 113.661,135.366 113.669 C 137.435 113.676,137.667 114.249,137.667 119.358 L 137.667 123.500 138.649 123.500 L 139.632 123.500 139.691 119.542 C 139.766 114.500,140.185 113.667,142.642 113.667 C 144.512 113.667,144.831 114.548,144.832 119.708 L 144.833 123.500 145.833 123.500 L 146.833 123.500 146.833 119.508 C 146.833 115.296,146.705 114.193,146.112 113.298 C 145.000 111.619,141.285 111.458,139.802 113.024 C 139.345 113.508,138.833 113.525,138.833 113.056 C 138.833 112.452,136.122 111.729,134.833 111.990 M154.417 112.004 C 153.468 112.200,152.627 112.583,152.262 112.986 C 151.817 113.479,151.667 113.419,151.667 112.750 L 151.667 112.167 150.833 112.167 L 150.000 112.167 150.000 120.417 L 150.000 128.667 151.020 128.667 L 152.041 128.667 151.971 125.583 C 151.899 122.369,151.914 122.277,152.433 122.852 C 153.508 124.046,156.916 124.023,158.304 122.812 C 160.618 120.793,160.710 115.171,158.465 113.064 C 157.523 112.180,155.777 111.723,154.417 112.004 M178.000 111.998 C 174.779 112.572,173.667 115.743,176.119 117.365 C 176.782 117.804,179.102 118.833,179.428 118.833 C 179.917 118.833,181.167 120.052,181.167 120.530 C 181.167 122.085,177.675 122.587,175.383 121.360 C 174.844 121.072,174.833 121.087,174.833 122.154 C 174.833 123.312,174.930 123.373,177.228 123.664 C 180.947 124.135,183.000 122.959,183.000 120.357 C 183.000 118.860,181.265 117.027,179.817 116.995 C 179.689 116.992,179.208 116.805,178.750 116.580 C 178.292 116.354,177.857 116.169,177.785 116.168 C 177.604 116.166,177.086 115.651,176.880 115.268 C 176.202 114.006,178.706 113.208,180.911 113.984 C 182.197 114.436,182.199 114.435,182.542 113.691 C 182.920 112.869,182.914 112.500,182.521 112.500 C 182.349 112.500,181.918 112.398,181.563 112.273 C 180.699 111.970,178.926 111.833,178.000 111.998 M207.812 112.001 C 204.289 112.604,202.604 116.256,203.933 120.408 C 205.316 124.728,211.819 124.972,213.545 120.767 C 215.543 115.904,212.468 111.204,207.812 112.001 M250.833 111.988 C 249.980 112.171,248.975 112.632,248.544 113.037 L 248.167 113.391 248.167 113.043 C 248.167 112.310,248.000 112.167,247.149 112.167 L 246.333 112.167 246.333 117.833 L 246.333 123.500 247.333 123.500 L 248.333 123.500 248.333 119.783 C 248.333 116.151,248.343 116.046,248.750 115.229 C 249.598 113.528,251.985 113.095,253.375 114.390 L 253.833 114.817 253.833 119.159 L 253.833 123.500 254.833 123.500 L 255.833 123.500 255.829 119.208 C 255.825 114.477,255.756 113.929,255.060 113.110 C 254.310 112.229,252.252 111.682,250.833 111.988 M120.917 112.310 C 119.655 112.658,119.500 112.761,119.500 113.252 C 119.500 114.431,120.011 114.660,121.249 114.035 C 123.331 112.983,125.333 113.944,125.333 115.995 L 125.333 116.667 124.042 116.675 C 119.279 116.708,117.032 118.901,118.484 122.099 C 119.352 124.010,123.614 124.382,125.046 122.673 C 125.406 122.243,125.591 122.332,125.724 122.997 C 125.819 123.468,125.873 123.500,126.579 123.500 L 127.333 123.500 127.333 119.087 C 127.333 114.359,127.238 113.701,126.435 112.898 C 125.537 112.000,123.015 111.732,120.917 112.310 M223.884 112.337 C 222.606 112.707,222.500 112.772,222.500 113.185 C 222.500 113.481,222.933 114.500,223.059 114.500 C 223.086 114.500,223.645 114.313,224.301 114.083 C 226.927 113.166,228.500 113.881,228.500 115.993 L 228.500 116.667 227.292 116.667 C 226.627 116.667,225.446 116.779,224.667 116.917 C 223.887 117.054,223.242 117.166,223.232 117.166 C 223.052 117.169,221.755 118.392,221.586 118.718 C 220.912 120.018,221.234 122.085,222.250 122.977 C 223.599 124.162,226.857 123.976,228.194 122.639 C 228.571 122.262,228.777 122.374,228.861 123.000 C 228.910 123.370,229.006 123.422,229.718 123.468 L 230.520 123.519 230.468 118.968 C 230.406 113.432,230.320 113.104,228.752 112.410 C 227.601 111.901,225.498 111.870,223.884 112.337 M261.250 112.269 C 259.356 112.828,259.370 112.814,259.747 113.718 C 260.084 114.524,260.099 114.527,261.419 114.058 C 263.977 113.149,265.667 113.953,265.667 116.078 L 265.667 116.667 264.292 116.675 C 259.604 116.705,257.301 118.763,258.482 121.869 C 259.240 123.862,263.374 124.473,265.046 122.839 C 265.698 122.201,265.800 122.206,265.864 122.875 C 265.915 123.395,265.948 123.419,266.716 123.468 L 267.515 123.519 267.466 118.775 L 267.417 114.032 266.894 113.311 C 266.006 112.085,263.464 111.616,261.250 112.269 M162.697 116.792 C 162.766 121.794,162.786 121.907,163.743 122.864 C 164.866 123.987,168.496 124.016,169.808 122.912 C 170.423 122.395,170.466 122.398,170.531 122.958 C 170.580 123.386,170.642 123.420,171.458 123.467 L 172.333 123.517 172.333 117.842 L 172.333 112.167 171.356 112.167 L 170.378 112.167 170.300 116.081 L 170.223 119.994 169.676 120.796 C 168.613 122.354,166.051 122.476,165.013 121.018 C 164.684 120.557,164.667 120.318,164.667 116.349 L 164.667 112.167 163.649 112.167 L 162.632 112.167 162.697 116.792 M241.000 117.833 L 241.000 123.500 242.000 123.500 L 243.000 123.500 243.000 117.833 L 243.000 112.167 242.000 112.167 L 241.000 112.167 241.000 117.833 M156.642 114.174 C 158.633 115.645,158.545 120.274,156.500 121.640 C 155.237 122.483,153.178 121.939,152.500 120.583 C 151.914 119.411,151.879 116.132,152.441 115.082 C 153.183 113.698,155.360 113.227,156.642 114.174 M210.132 113.984 C 212.715 115.308,212.635 121.024,210.023 121.807 C 207.350 122.608,205.644 121.069,205.629 117.844 C 205.614 114.591,207.749 112.762,210.132 113.984 M125.330 118.875 C 125.323 120.554,124.655 121.472,123.117 121.916 C 121.697 122.326,120.620 121.939,120.333 120.917 C 119.900 119.367,120.948 118.429,123.401 118.170 C 125.511 117.947,125.334 117.883,125.330 118.875 M228.500 118.646 C 228.500 119.475,228.091 120.631,227.619 121.135 C 226.392 122.445,223.666 122.304,223.406 120.917 C 223.080 119.183,224.199 118.291,226.917 118.114 C 227.375 118.084,227.919 118.047,228.125 118.030 C 228.455 118.004,228.500 118.078,228.500 118.646 M265.600 118.954 C 265.289 121.607,262.525 123.080,260.831 121.497 C 259.388 120.150,260.789 118.445,263.559 118.177 C 265.955 117.945,265.729 117.859,265.600 118.954 " stroke="none" fill="#fff" fill-rule="evenodd"></path><path id="path3" d="" stroke="none" fill="#5c781c" fill-rule="evenodd"></path><path id="path4" d="" stroke="none" fill="#44281c" fill-rule="evenodd"></path></g></svg>